<!DOCTYPE svg PUBLIC "-//W3C//DTD SVG 1.1//EN" "http://www.w3.org/Graphics/SVG/1.1/DTD/svg11.dtd">
<!-- Uploaded to: SVG Repo, www.svgrepo.com, Transformed by: SVG Repo Mixer Tools -->
<svg fill="#7c7936" height="800px" width="800px" version="1.1" id="Layer_1" xmlns="http://www.w3.org/2000/svg" xmlns:xlink="http://www.w3.org/1999/xlink" viewBox="0 0 512 512" xml:space="preserve">
<g id="SVGRepo_bgCarrier" stroke-width="0"/>
<g id="SVGRepo_tracerCarrier" stroke-linecap="round" stroke-linejoin="round"/>
<g id="SVGRepo_iconCarrier"> <g> <g> <path d="M384.853,119.504c-18.528-1.749-35.323-9.481-48.53-21.157c-0.125-0.127-0.246-0.257-0.38-0.377 c-5.584-4.99-10.451-10.623-14.519-16.741c-0.134-0.202-0.268-0.404-0.401-0.607c-0.516-0.791-1.016-1.591-1.505-2.397 c-0.284-0.468-0.567-0.937-0.842-1.411c-0.265-0.456-0.526-0.915-0.783-1.375c-0.439-0.79-0.869-1.585-1.283-2.389 c-0.185-0.357-0.362-0.719-0.541-1.078c-0.406-0.816-0.804-1.638-1.184-2.468c-0.133-0.289-0.263-0.58-0.392-0.871 c-0.392-0.88-0.768-1.768-1.131-2.663c-0.097-0.24-0.198-0.479-0.293-0.72c-0.398-1.01-0.775-2.03-1.135-3.058 c-0.088-0.25-0.175-0.5-0.261-0.751c-0.355-1.045-0.693-2.097-1.009-3.158c-0.064-0.215-0.125-0.432-0.187-0.648 c-0.321-1.113-0.626-2.232-0.903-3.362c-0.026-0.106-0.048-0.212-0.074-0.318c-0.27-1.124-0.518-2.257-0.743-3.397 c-0.026-0.129-0.054-0.257-0.079-0.386c-0.224-1.161-0.419-2.33-0.594-3.506c-0.029-0.196-0.06-0.391-0.088-0.588 c-0.165-1.16-0.306-2.328-0.423-3.502c-0.019-0.194-0.037-0.388-0.055-0.582c-0.111-1.199-0.201-2.404-0.262-3.616 c-0.007-0.132-0.01-0.264-0.016-0.396c-0.058-1.277-0.093-2.559-0.093-3.849v-25.6c0-4.713-3.82-8.533-8.533-8.533h-85.333 c-4.125,0-7.565,2.926-8.36,6.816c-0.114,0.556-0.174,1.132-0.174,1.722v25.6c0,0.024-0.001,0.047-0.001,0.071 c-0.001,1.23-0.035,2.453-0.088,3.671c-0.008,0.185-0.013,0.37-0.022,0.555c-0.059,1.171-0.146,2.335-0.252,3.494 c-0.022,0.237-0.043,0.475-0.067,0.712c-0.114,1.138-0.25,2.27-0.409,3.395c-0.033,0.236-0.07,0.47-0.105,0.706 c-0.171,1.142-0.36,2.279-0.576,3.406c-0.032,0.166-0.068,0.331-0.101,0.497c-0.215,1.086-0.45,2.165-0.706,3.236 c-0.034,0.144-0.065,0.288-0.1,0.432c-0.271,1.107-0.569,2.203-0.883,3.294c-0.068,0.237-0.135,0.475-0.205,0.712 c-0.311,1.049-0.644,2.089-0.994,3.121c-0.088,0.26-0.179,0.52-0.27,0.78c-0.358,1.023-0.732,2.038-1.128,3.044 c-0.095,0.24-0.195,0.478-0.292,0.718c-0.364,0.901-0.743,1.796-1.137,2.682c-0.117,0.262-0.232,0.525-0.352,0.786 c-0.394,0.864-0.807,1.719-1.229,2.568c-0.171,0.343-0.34,0.688-0.515,1.029c-0.424,0.825-0.864,1.641-1.314,2.451 c-0.239,0.43-0.483,0.858-0.73,1.285c-0.328,0.567-0.664,1.128-1.004,1.686c-0.423,0.694-0.856,1.383-1.299,2.065 c-0.185,0.286-0.373,0.57-0.562,0.853c-4.047,6.072-8.88,11.664-14.422,16.622c-0.108,0.096-0.202,0.201-0.304,0.301 c-13.196,11.7-29.991,19.446-48.534,21.196c-4.588,0.433-8.003,4.43-7.715,9.029c3.94,62.921,50.578,113.713,110.917,125.079 v208.043c-19.474,3.954-34.133,21.171-34.133,41.811c0,4.713,3.82,8.533,8.533,8.533h102.4c4.713,0,8.533-3.82,8.533-8.533 c0-20.64-14.659-37.858-34.133-41.811V253.613c60.372-11.365,107.08-62.172,111.019-125.08 C392.856,123.934,389.441,119.938,384.853,119.504z M247.243,169.414c3.853-6.185,6.509-10.54,8.702-14.381 c2.257,3.966,4.983,8.44,8.926,14.773l0.425,0.683c2.616,4.2,3.859,6.214,5.31,8.62c2.021,3.345,2.82,7.221,2.207,11.274 c-1.055,7.005-6.816,12.937-13.724,14.143c-10.704,1.865-20.207-6.201-20.207-16.793c0-3.072,0.819-5.986,2.367-8.575 c1.548-2.585,2.864-4.719,5.716-9.297L247.243,169.414z M255.999,128.003c-0.032,0-0.065,0-0.097,0 c-23.2-0.011-45.014-8.562-61.99-23.643c2.732-2.916,5.29-5.991,7.672-9.205c0.046-0.062,0.092-0.124,0.137-0.186 c0.806-1.093,1.59-2.201,2.354-3.326c0.186-0.274,0.372-0.548,0.556-0.823c0.543-0.817,1.074-1.642,1.594-2.474 c0.333-0.532,0.663-1.066,0.986-1.603c0.313-0.521,0.623-1.044,0.927-1.571c0.481-0.835,0.95-1.676,1.407-2.523 c0.247-0.458,0.49-0.919,0.73-1.381c0.477-0.917,0.943-1.839,1.392-2.77c0.192-0.397,0.377-0.798,0.564-1.198 c0.466-0.999,0.923-2.004,1.357-3.018c0.14-0.327,0.272-0.659,0.409-0.988c0.403-0.97,0.793-1.945,1.166-2.927 c0.132-0.348,0.263-0.697,0.392-1.047c0.379-1.031,0.739-2.068,1.085-3.112c0.095-0.287,0.195-0.572,0.287-0.861 c0.368-1.143,0.709-2.296,1.036-3.454c0.089-0.314,0.18-0.627,0.266-0.942c0.315-1.156,0.607-2.32,0.881-3.49 c0.075-0.319,0.15-0.638,0.222-0.958c0.266-1.183,0.51-2.373,0.734-3.568c0.057-0.306,0.113-0.612,0.167-0.918 c0.218-1.225,0.415-2.455,0.589-3.691c0.038-0.271,0.072-0.542,0.108-0.814c0.169-1.282,0.318-2.568,0.439-3.86 c0.02-0.217,0.036-0.434,0.055-0.651c0.118-1.354,0.214-2.712,0.278-4.077c0.006-0.138,0.009-0.277,0.015-0.416 c0.061-1.428,0.096-2.861,0.098-4.299c0-0.025,0.002-0.05,0.002-0.076V17.071h68.266v17.067c0,1.506,0.037,3.006,0.103,4.502 c0.003,0.076,0.005,0.151,0.008,0.227c0.066,1.417,0.165,2.828,0.289,4.234c0.014,0.164,0.026,0.328,0.042,0.492 c0.124,1.337,0.279,2.668,0.455,3.994c0.03,0.226,0.059,0.453,0.09,0.679c0.178,1.275,0.382,2.544,0.608,3.807 c0.048,0.267,0.096,0.534,0.146,0.801c0.23,1.228,0.481,2.451,0.756,3.666c0.065,0.289,0.133,0.576,0.2,0.864 c0.281,1.195,0.58,2.385,0.903,3.567c0.08,0.292,0.164,0.582,0.247,0.873c0.333,1.176,0.68,2.346,1.055,3.507 c0.089,0.275,0.184,0.547,0.275,0.821c0.352,1.061,0.719,2.116,1.105,3.164c0.126,0.341,0.254,0.681,0.383,1.021 c0.373,0.98,0.763,1.952,1.165,2.919c0.143,0.343,0.282,0.688,0.429,1.03c0.426,0.993,0.874,1.976,1.331,2.955 c0.194,0.416,0.387,0.832,0.587,1.246c0.44,0.91,0.897,1.813,1.364,2.71c0.254,0.488,0.511,0.975,0.772,1.458 c0.442,0.817,0.895,1.629,1.36,2.434c0.327,0.567,0.661,1.129,0.998,1.689c0.252,0.417,0.509,0.831,0.767,1.245 c0.603,0.971,1.22,1.931,1.854,2.881c0.111,0.166,0.223,0.33,0.335,0.495c3.093,4.576,6.538,8.897,10.308,12.917 C301.049,119.431,279.222,127.991,255.999,128.003z M297.159,494.933h-82.419c3.515-9.942,12.998-17.067,24.143-17.067h34.133 C284.161,477.867,293.644,484.991,297.159,494.933z M264.482,460.8h-17.067V255.729c2.824,0.173,5.667,0.271,8.533,0.271 c2.866,0,5.709-0.098,8.533-0.271V460.8z M273.307,237.686c-0.465-0.015-0.935-0.005-1.414,0.058 c-5.153,0.683-9.656,1.073-13.952,1.166c-0.664,0.011-1.327,0.023-1.993,0.023c-0.666,0-1.329-0.012-1.992-0.023 c-4.301-0.093-8.812-0.483-13.951-1.166c-0.478-0.063-0.947-0.074-1.412-0.059c-52.678-7.605-94.505-49.308-101.374-102.349 c16.337-2.939,31.312-9.775,43.981-19.466c16.965,15.578,38.246,25.543,61.225,28.367c-2.31,4.207-5.094,8.807-9.67,16.153 l-0.278,0.446c-2.904,4.661-4.256,6.854-5.875,9.558c-3.12,5.219-4.788,11.154-4.788,17.338c0,21.151,19.021,37.297,40.206,33.606 c14.164-2.473,25.523-14.17,27.667-28.41c1.214-8.028-0.413-15.923-4.471-22.639c-1.502-2.491-2.776-4.554-5.434-8.823 l-0.425-0.682c-4.66-7.484-7.515-12.209-9.892-16.546c23.005-2.824,44.302-12.799,61.264-28.395 c12.69,9.704,27.691,16.551,44.05,19.493C367.905,188.362,326.014,230.08,273.307,237.686z"/> </g> </g> </g>
</svg>