<?xml version="1.0" standalone="no"?>
<!DOCTYPE svg PUBLIC "-//W3C//DTD SVG 20010904//EN"
 "http://www.w3.org/TR/2001/REC-SVG-20010904/DTD/svg10.dtd">
<svg version="1.0" xmlns="http://www.w3.org/2000/svg"
 width="300.000000pt" height="246.000000pt" viewBox="0 0 300.000000 246.000000"
 preserveAspectRatio="xMidYMid meet">
<metadata>
Created by potrace 1.10, written by Peter Selinger 2001-2011
</metadata>
<g transform="translate(0.000000,246.000000) scale(0.100000,-0.100000)"
fill="#000000" stroke="none">
<path d="M667 2113 c-11 -11 -8 -1375 3 -1389 8 -9 60 -10 204 -6 135 3 195 2
200 -6 4 -6 -12 -73 -34 -148 -23 -75 -39 -138 -37 -140 6 -6 127 263 127 281
0 8 11 35 25 61 14 26 25 53 25 61 0 25 43 104 62 114 16 8 24 7 35 -4 21 -20
13 -47 -37 -129 -22 -37 -40 -74 -40 -82 0 -9 -8 -24 -19 -35 -10 -10 -51 -87
-91 -170 -62 -127 -76 -150 -92 -145 -10 3 -18 1 -18 -5 0 -12 1 -13 49 -17
19 -1 44 4 55 12 20 14 20 14 -2 14 -46 0 -19 38 133 188 l156 154 479 -4 480
-3 0 620 c0 341 3 657 7 703 l6 82 -835 0 c-459 0 -838 -3 -841 -7z m872 -92
c11 -7 5 -24 -33 -83 -68 -105 -113 -204 -128 -275 -10 -54 -10 -70 5 -117 28
-88 125 -160 251 -186 202 -41 314 78 400 426 28 113 68 213 93 232 19 13 71
16 91 4 10 -7 12 -133 10 -598 l-3 -589 -364 -3 c-223 -1 -368 1 -374 7 -6 6
0 30 17 66 34 73 45 124 46 215 1 41 8 93 16 115 28 74 28 72 -8 80 -18 4 -45
13 -59 21 -25 12 -27 11 -49 -29 -27 -49 -52 -83 -136 -188 -77 -96 -138 -185
-171 -250 -21 -43 -28 -50 -46 -45 -12 3 -91 6 -174 6 l-153 0 0 594 c0 558 1
595 18 599 33 9 737 7 751 -2z m65 -99 c-1 -36 -15 -75 -59 -167 -62 -126 -72
-180 -51 -264 9 -32 8 -33 -12 -22 -12 6 -33 28 -47 49 -20 29 -25 49 -25 97
1 76 28 144 111 274 69 106 85 113 83 33z"/>
<path d="M1397 1374 c-5 -17 -42 -80 -83 -140 -42 -60 -84 -127 -95 -149 -23
-46 -19 -42 85 100 88 121 108 158 104 193 l-4 27 -7 -31z"/>
<path d="M2179 452 c-5 -13 -110 -31 -189 -33 -30 -1 -44 -4 -31 -6 36 -7 361
16 380 27 13 8 11 9 -10 10 -14 0 -53 3 -86 6 -40 4 -62 3 -64 -4z"/>
</g>
</svg>
